<?xml version="1.0" encoding="utf-8"?><!-- Uploaded to: SVG Repo, www.svgrepo.com, Generator: SVG Repo Mixer Tools -->
<svg fill="#000000" width="800px" height="800px" viewBox="0 0 24 24" id="sign-in-alt-2" data-name="Flat Line" xmlns="http://www.w3.org/2000/svg" class="icon flat-line"><path id="secondary" d="M21,18.22V5.78a1,1,0,0,0-.76-1l-6-1.5a1,1,0,0,0-1.24,1V19.72a1,1,0,0,0,1.24,1l6-1.5A1,1,0,0,0,21,18.22Z" style="fill: rgb(44, 169, 188); stroke-width: 2;"></path><polyline id="primary" points="6 9 9 12 6 15" style="fill: none; stroke: rgb(0, 0, 0); stroke-linecap: round; stroke-linejoin: round; stroke-width: 2;"></polyline><path id="primary-2" data-name="primary" d="M9,12H2m8-6h3m0,12H10m10.24,1.19-6,1.5a1,1,0,0,1-1.24-1V4.28a1,1,0,0,1,1.24-1l6,1.5a1,1,0,0,1,.76,1V18.22A1,1,0,0,1,20.24,19.19Z" style="fill: none; stroke: rgb(0, 0, 0); stroke-linecap: round; stroke-linejoin: round; stroke-width: 2;"></path></svg>